<svg id="kity_svg_6" xmlns="http://www.w3.org/2000/svg" xmlns:xlink="http://www.w3.org/1999/xlink" version="1.1" width="823" height="2008" style="background: rgb(251, 251, 251); visibility: visible;" viewBox="0 0 823 2008"><defs id="kity_defs_7"><linearGradient id="kity_linearGradient_17" x1="0" y1="0" x2="0" y2="1"><stop id="kity_stop_18" offset="0" stop-color="rgb(255, 255, 255)"></stop><stop id="kity_stop_19" offset="1" stop-color="rgb(204, 204, 204)"></stop></linearGradient><marker id="kity_marker_2" orient="auto" refX="6" refY="0" viewBox="-7 -7 14 14" markerWidth="7" markerHeight="7" markerUnits="userSpaceOnUse"><path id="kity_path_3" fill="rgb(115, 161, 191)" stroke="none" d="M6,0A6,6,0,1,1,-6,0A6,6,0,1,1,6,0"></path></marker></defs><g id="kity_g_8"><g id="minder1" text-rendering="optimize-speed"><g id="minder_connect_group1"><path id="kity_path_31" fill="none" stroke="rgb(115, 161, 191)" stroke-width="1" d="M77,1088.5A174.5,801,0,0,1,251.5,287.5"></path><path id="kity_path_33" fill="none" stroke="rgb(115, 161, 191)" stroke-width="1" d="M322.5,287.5C342.5,287.5,342.5,57.5,362.5,57.5"></path><path id="kity_path_35" fill="none" stroke="rgb(115, 161, 191)" stroke-width="1" d="M431.5,57.5C451.5,57.5,451.5,31.5,471.5,31.5"></path><path id="kity_path_37" fill="none" stroke="rgb(115, 161, 191)" stroke-width="1" d="M431.5,57.5C451.5,57.5,451.5,83.5,471.5,83.5"></path><path id="kity_path_39" fill="none" stroke="rgb(115, 161, 191)" stroke-width="1" d="M322.5,287.5C342.5,287.5,342.5,187.5,362.5,187.5"></path><path id="kity_path_41" fill="none" stroke="rgb(115, 161, 191)" stroke-width="1" d="M408.5,187.5C428.5,187.5,428.5,135.5,448.5,135.5"></path><path id="kity_path_43" fill="none" stroke="rgb(115, 161, 191)" stroke-width="1" d="M408.5,187.5C428.5,187.5,428.5,187.5,448.5,187.5"></path><path id="kity_path_45" fill="none" stroke="rgb(115, 161, 191)" stroke-width="1" d="M518.5,187.5C538.5,187.5,538.5,187.5,558.5,187.5"></path><path id="kity_path_47" fill="none" stroke="rgb(115, 161, 191)" stroke-width="1" d="M408.5,187.5C428.5,187.5,428.5,239.5,448.5,239.5"></path><path id="kity_path_49" fill="none" stroke="rgb(115, 161, 191)" stroke-width="1" d="M322.5,287.5C342.5,287.5,342.5,343.5,362.5,343.5"></path><path id="kity_path_51" fill="none" stroke="rgb(115, 161, 191)" stroke-width="1" d="M433.5,343.5C453.5,343.5,453.5,291.5,473.5,291.5"></path><path id="kity_path_53" fill="none" stroke="rgb(115, 161, 191)" stroke-width="1" d="M433.5,343.5C453.5,343.5,453.5,343.5,473.5,343.5"></path><path id="kity_path_55" fill="none" stroke="rgb(115, 161, 191)" stroke-width="1" d="M433.5,343.5C453.5,343.5,453.5,395.5,473.5,395.5"></path><path id="kity_path_57" fill="none" stroke="rgb(115, 161, 191)" stroke-width="1" d="M322.5,287.5C342.5,287.5,342.5,517.5,362.5,517.5"></path><path id="kity_path_59" fill="none" stroke="rgb(115, 161, 191)" stroke-width="1" d="M432.5,517.5C452.5,517.5,452.5,447.5,472.5,447.5"></path><path id="kity_path_61" fill="none" stroke="rgb(115, 161, 191)" stroke-width="1" d="M432.5,517.5C452.5,517.5,452.5,508.5,472.5,508.5"></path><path id="kity_path_63" fill="none" stroke="rgb(115, 161, 191)" stroke-width="1" d="M432.5,517.5C452.5,517.5,452.5,578.5,472.5,578.5"></path><path id="kity_path_65" fill="none" stroke="rgb(115, 161, 191)" stroke-width="1" d="M77,1088.5A174.5,133,0,0,0,251.5,1221.5"></path><path id="kity_path_67" fill="none" stroke="rgb(115, 161, 191)" stroke-width="1" d="M337.5,1221.5C357.5,1221.5,357.5,818.5,377.5,818.5"></path><path id="kity_path_69" fill="none" stroke="rgb(115, 161, 191)" stroke-width="1" d="M492.5,818.5C512.5,818.5,512.5,727.5,532.5,727.5"></path><path id="kity_path_71" fill="none" stroke="rgb(115, 161, 191)" stroke-width="1" d="M578.5,727.5C598.5,727.5,598.5,649.5,618.5,649.5"></path><path id="kity_path_73" fill="none" stroke="rgb(115, 161, 191)" stroke-width="1" d="M578.5,727.5C598.5,727.5,598.5,701.5,618.5,701.5"></path><path id="kity_path_75" fill="none" stroke="rgb(115, 161, 191)" stroke-width="1" d="M578.5,727.5C598.5,727.5,598.5,753.5,618.5,753.5"></path><path id="kity_path_77" fill="none" stroke="rgb(115, 161, 191)" stroke-width="1" d="M578.5,727.5C598.5,727.5,598.5,805.5,618.5,805.5"></path><path id="kity_path_79" fill="none" stroke="rgb(115, 161, 191)" stroke-width="1" d="M492.5,818.5C512.5,818.5,512.5,909.5,532.5,909.5"></path><path id="kity_path_81" fill="none" stroke="rgb(115, 161, 191)" stroke-width="1" d="M578.5,909.5C598.5,909.5,598.5,857.5,618.5,857.5"></path><path id="kity_path_83" fill="none" stroke="rgb(115, 161, 191)" stroke-width="1" d="M578.5,909.5C598.5,909.5,598.5,909.5,618.5,909.5"></path><path id="kity_path_85" fill="none" stroke="rgb(115, 161, 191)" stroke-width="1" d="M578.5,909.5C598.5,909.5,598.5,961.5,618.5,961.5"></path><path id="kity_path_87" fill="none" stroke="rgb(115, 161, 191)" stroke-width="1" d="M337.5,1221.5C357.5,1221.5,357.5,1208.5,377.5,1208.5"></path><path id="kity_path_89" fill="none" stroke="rgb(115, 161, 191)" stroke-width="1" d="M509.5,1208.5C529.5,1208.5,529.5,1117.5,549.5,1117.5"></path><path id="kity_path_91" fill="none" stroke="rgb(115, 161, 191)" stroke-width="1" d="M595.5,1117.5C615.5,1117.5,615.5,1013.5,635.5,1013.5"></path><path id="kity_path_93" fill="none" stroke="rgb(115, 161, 191)" stroke-width="1" d="M595.5,1117.5C615.5,1117.5,615.5,1065.5,635.5,1065.5"></path><path id="kity_path_95" fill="none" stroke="rgb(115, 161, 191)" stroke-width="1" d="M595.5,1117.5C615.5,1117.5,615.5,1117.5,635.5,1117.5"></path><path id="kity_path_97" fill="none" stroke="rgb(115, 161, 191)" stroke-width="1" d="M595.5,1117.5C615.5,1117.5,615.5,1169.5,635.5,1169.5"></path><path id="kity_path_99" fill="none" stroke="rgb(115, 161, 191)" stroke-width="1" d="M595.5,1117.5C615.5,1117.5,615.5,1221.5,635.5,1221.5"></path><path id="kity_path_101" fill="none" stroke="rgb(115, 161, 191)" stroke-width="1" d="M509.5,1208.5C529.5,1208.5,529.5,1299.5,549.5,1299.5"></path><path id="kity_path_103" fill="none" stroke="rgb(115, 161, 191)" stroke-width="1" d="M595.5,1299.5C615.5,1299.5,615.5,1273.5,635.5,1273.5"></path><path id="kity_path_105" fill="none" stroke="rgb(115, 161, 191)" stroke-width="1" d="M595.5,1299.5C615.5,1299.5,615.5,1325.5,635.5,1325.5"></path><path id="kity_path_107" fill="none" stroke="rgb(115, 161, 191)" stroke-width="1" d="M337.5,1221.5C357.5,1221.5,357.5,1442.5,377.5,1442.5"></path><path id="kity_path_109" fill="none" stroke="rgb(115, 161, 191)" stroke-width="1" d="M433.5,1442.5C453.5,1442.5,453.5,1403.5,473.5,1403.5"></path><path id="kity_path_111" fill="none" stroke="rgb(115, 161, 191)" stroke-width="1" d="M519.5,1403.5C539.5,1403.5,539.5,1377.5,559.5,1377.5"></path><path id="kity_path_113" fill="none" stroke="rgb(115, 161, 191)" stroke-width="1" d="M519.5,1403.5C539.5,1403.5,539.5,1429.5,559.5,1429.5"></path><path id="kity_path_115" fill="none" stroke="rgb(115, 161, 191)" stroke-width="1" d="M433.5,1442.5C453.5,1442.5,453.5,1481.5,473.5,1481.5"></path><path id="kity_path_117" fill="none" stroke="rgb(115, 161, 191)" stroke-width="1" d="M519.5,1481.5C539.5,1481.5,539.5,1481.5,559.5,1481.5"></path><path id="kity_path_119" fill="none" stroke="rgb(115, 161, 191)" stroke-width="1" d="M337.5,1221.5C357.5,1221.5,357.5,1624.5,377.5,1624.5"></path><path id="kity_path_121" fill="none" stroke="rgb(115, 161, 191)" stroke-width="1" d="M499.5,1624.5C519.5,1624.5,519.5,1559.5,539.5,1559.5"></path><path id="kity_path_123" fill="none" stroke="rgb(115, 161, 191)" stroke-width="1" d="M585.5,1559.5C605.5,1559.5,605.5,1533.5,625.5,1533.5"></path><path id="kity_path_125" fill="none" stroke="rgb(115, 161, 191)" stroke-width="1" d="M585.5,1559.5C605.5,1559.5,605.5,1585.5,625.5,1585.5"></path><path id="kity_path_127" fill="none" stroke="rgb(115, 161, 191)" stroke-width="1" d="M499.5,1624.5C519.5,1624.5,519.5,1689.5,539.5,1689.5"></path><path id="kity_path_129" fill="none" stroke="rgb(115, 161, 191)" stroke-width="1" d="M585.5,1689.5C605.5,1689.5,605.5,1637.5,625.5,1637.5"></path><path id="kity_path_131" fill="none" stroke="rgb(115, 161, 191)" stroke-width="1" d="M585.5,1689.5C605.5,1689.5,605.5,1689.5,625.5,1689.5"></path><path id="kity_path_133" fill="none" stroke="rgb(115, 161, 191)" stroke-width="1" d="M585.5,1689.5C605.5,1689.5,605.5,1741.5,625.5,1741.5"></path><path id="kity_path_135" fill="none" stroke="rgb(115, 161, 191)" stroke-width="1" d="M77,1088.5A174.5,802,0,0,0,251.5,1890.5"></path><path id="kity_path_457" fill="none" stroke="rgb(115, 161, 191)" stroke-width="1" d="M337.5,1890.5C357.5,1890.5,357.5,1803.5,377.5,1803.5"></path><path id="kity_path_473" fill="none" stroke="rgb(115, 161, 191)" stroke-width="1" d="M337.5,1890.5C357.5,1890.5,357.5,1855.5,377.5,1855.5"></path><path id="kity_path_481" fill="none" stroke="rgb(115, 161, 191)" stroke-width="1" d="M337.5,1890.5C357.5,1890.5,357.5,1916.5,377.5,1916.5"></path><path id="kity_path_498" fill="none" stroke="rgb(115, 161, 191)" stroke-width="1" d="M337.5,1890.5C357.5,1890.5,357.5,1977.5,377.5,1977.5"></path></g><g id="minder_node1"><path id="node_outline1" fill="rgb(115, 161, 191)" stroke="rgb(115, 161, 191)" d="M25.5,1068.5h103a5,5,0,0,1,5,5v30a5,5,0,0,1,-5,5h-103a5,5,0,0,1,-5,-5v-30a5,5,0,0,1,5,-5z" stroke-width="3"></path><g id="node_text1" fill="white"><text id="kity_text_22" text-rendering="inherit" font-size="16" dy=".8em" y="1078.0999999046326" x="44.5">新建脑图</text></g></g><g id="kity_g_14" display="none"><path id="kity_path_15" fill="rgba(0, 92, 153, 0.5)" stroke="none" d="M377.5,1941.5h143v15h-143z"></path><path id="kity_path_16" fill="none" stroke="rgb(0, 76, 128)" d="M377.5,1941.5L520.5,1941.5" stroke-width="1"></path></g><g id="minder_node2"><g id="node_expander17" style="cursor: pointer;"><path id="kity_path_346" fill="white" stroke="gray" d="M252.5,287.5A6,6,0,1,1,240.5,287.5A6,6,0,1,1,252.5,287.5"></path><path id="kity_path_347" fill="none" stroke="gray" d="M242,287.5L251,287.5"></path></g><path id="node_outline18" fill="rgb(238, 243, 246)" stroke="rgb(115, 161, 191)" d="M256.5,274.5h63a3,3,0,0,1,3,3v20a3,3,0,0,1,-3,3h-63a3,3,0,0,1,-3,-3v-20a3,3,0,0,1,3,-3z" stroke-width="1"></path><g id="node_text18" fill="black"><text id="kity_text_171" text-rendering="inherit" font-size="14" dy=".8em" y="278.40000009536743" x="273.5">界面</text></g></g><g id="minder_node3"><g id="node_expander3" style="cursor: pointer;"><path id="kity_path_304" fill="white" stroke="gray" d="M362.5,57.5A6,6,0,1,1,350.5,57.5A6,6,0,1,1,362.5,57.5"></path><path id="kity_path_305" fill="none" stroke="gray" d="M352,57.5L361,57.5"></path></g><path id="node_outline4" fill="none" stroke="none" d="M367.5,46.5h59a5,5,0,0,1,5,5v12a5,5,0,0,1,-5,5h-59a5,5,0,0,1,-5,-5v-12a5,5,0,0,1,5,-5z"></path><g id="node_text4" fill="black"><text id="kity_text_141" text-rendering="inherit" font-size="12" dy=".8em" y="49.700000047683716" x="372.5">矫正功能</text></g></g><g id="minder_node4"><g id="node_expander1" style="cursor: pointer;" display="none"><path id="kity_path_298" fill="white" stroke="gray" d="M471.5,31.5A6,6,0,1,1,459.5,31.5A6,6,0,1,1,471.5,31.5"></path><path id="kity_path_299" fill="none" stroke="gray"></path></g><path id="node_outline2" fill="none" stroke="none" d="M476.5,20.5h60a5,5,0,0,1,5,5v12a5,5,0,0,1,-5,5h-60a5,5,0,0,1,-5,-5v-12a5,5,0,0,1,5,-5z"></path><g id="node_text2" fill="black"><text id="kity_text_137" text-rendering="inherit" font-size="12" dy=".8em" y="23.700000047683716" x="481.5">输入图像</text></g></g><g id="minder_node5"><g id="node_expander2" style="cursor: pointer;" display="none"><path id="kity_path_301" fill="white" stroke="gray" d="M471.5,83.5A6,6,0,1,1,459.5,83.5A6,6,0,1,1,471.5,83.5"></path><path id="kity_path_302" fill="none" stroke="gray"></path></g><path id="node_outline3" fill="none" stroke="none" d="M476.5,72.5h60a5,5,0,0,1,5,5v12a5,5,0,0,1,-5,5h-60a5,5,0,0,1,-5,-5v-12a5,5,0,0,1,5,-5z"></path><g id="node_text3" fill="black"><text id="kity_text_139" text-rendering="inherit" font-size="12" dy=".8em" y="75.70000004768372" x="481.5">输出参数</text></g></g><g id="minder_node6"><g id="node_expander8" style="cursor: pointer;"><path id="kity_path_319" fill="white" stroke="gray" d="M362.5,187.5A6,6,0,1,1,350.5,187.5A6,6,0,1,1,362.5,187.5"></path><path id="kity_path_320" fill="none" stroke="gray" d="M352,187.5L361,187.5"></path></g><path id="node_outline9" fill="none" stroke="none" d="M367.5,176.5h36a5,5,0,0,1,5,5v12a5,5,0,0,1,-5,5h-36a5,5,0,0,1,-5,-5v-12a5,5,0,0,1,5,-5z"></path><g id="node_text9" fill="black"><text id="kity_text_151" text-rendering="inherit" font-size="12" dy=".8em" y="179.70000004768372" x="372.5">视频</text></g></g><g id="minder_node7"><g id="node_expander4" style="cursor: pointer;" display="none"><path id="kity_path_307" fill="white" stroke="gray" d="M448.5,135.5A6,6,0,1,1,436.5,135.5A6,6,0,1,1,448.5,135.5"></path><path id="kity_path_308" fill="none" stroke="gray"></path></g><path id="node_outline5" fill="none" stroke="none" d="M453.5,124.5h95a5,5,0,0,1,5,5v12a5,5,0,0,1,-5,5h-95a5,5,0,0,1,-5,-5v-12a5,5,0,0,1,5,-5z"></path><g id="node_text5" fill="black"><text id="kity_text_143" text-rendering="inherit" font-size="12" dy=".8em" y="127.70000004768372" x="458.5">显示、保存视频</text></g></g><g id="minder_node8"><g id="node_expander6" style="cursor: pointer;"><path id="kity_path_313" fill="white" stroke="gray" d="M448.5,187.5A6,6,0,1,1,436.5,187.5A6,6,0,1,1,448.5,187.5"></path><path id="kity_path_314" fill="none" stroke="gray" d="M438,187.5L447,187.5"></path></g><path id="node_outline7" fill="none" stroke="none" d="M453.5,176.5h60a5,5,0,0,1,5,5v12a5,5,0,0,1,-5,5h-60a5,5,0,0,1,-5,-5v-12a5,5,0,0,1,5,-5z"></path><g id="node_text7" fill="black"><text id="kity_text_147" text-rendering="inherit" font-size="12" dy=".8em" y="179.70000004768372" x="458.5">处理图像</text></g></g><g id="minder_node9"><g id="node_expander5" style="cursor: pointer;" display="none"><path id="kity_path_310" fill="white" stroke="gray" d="M558.5,187.5A6,6,0,1,1,546.5,187.5A6,6,0,1,1,558.5,187.5"></path><path id="kity_path_311" fill="none" stroke="gray"></path></g><path id="node_outline6" fill="none" stroke="none" d="M563.5,176.5h108a5,5,0,0,1,5,5v12a5,5,0,0,1,-5,5h-108a5,5,0,0,1,-5,-5v-12a5,5,0,0,1,5,-5z"></path><g id="node_text6" fill="black"><text id="kity_text_145" text-rendering="inherit" font-size="12" dy=".8em" y="179.70000004768372" x="568.5">选择中央还是两边</text></g></g><g id="minder_node10"><g id="node_expander7" style="cursor: pointer;" display="none"><path id="kity_path_316" fill="white" stroke="gray" d="M448.5,239.5A6,6,0,1,1,436.5,239.5A6,6,0,1,1,448.5,239.5"></path><path id="kity_path_317" fill="none" stroke="gray"></path></g><path id="node_outline8" fill="none" stroke="none" d="M453.5,228.5h59a5,5,0,0,1,5,5v12a5,5,0,0,1,-5,5h-59a5,5,0,0,1,-5,-5v-12a5,5,0,0,1,5,-5z"></path><g id="node_text8" fill="black"><text id="kity_text_149" text-rendering="inherit" font-size="12" dy=".8em" y="231.70000004768372" x="458.5">显示参数</text></g></g><g id="minder_node11"><g id="node_expander12" style="cursor: pointer;"><path id="kity_path_331" fill="white" stroke="gray" d="M362.5,343.5A6,6,0,1,1,350.5,343.5A6,6,0,1,1,362.5,343.5"></path><path id="kity_path_332" fill="none" stroke="gray" d="M352,343.5L361,343.5"></path></g><path id="node_outline13" fill="none" stroke="none" d="M367.5,332.5h61a5,5,0,0,1,5,5v12a5,5,0,0,1,-5,5h-61a5,5,0,0,1,-5,-5v-12a5,5,0,0,1,5,-5z"></path><g id="node_text13" fill="black"><text id="kity_text_159" text-rendering="inherit" font-size="12" dy=".8em" y="335.7000000476837" x="372.5">CAN传输</text></g></g><g id="minder_node12"><g id="node_expander9" style="cursor: pointer;" display="none"><path id="kity_path_322" fill="white" stroke="gray" d="M473.5,291.5A6,6,0,1,1,461.5,291.5A6,6,0,1,1,473.5,291.5"></path><path id="kity_path_323" fill="none" stroke="gray"></path></g><path id="node_outline10" fill="none" stroke="none" d="M478.5,280.5h60a5,5,0,0,1,5,5v12a5,5,0,0,1,-5,5h-60a5,5,0,0,1,-5,-5v-12a5,5,0,0,1,5,-5z"></path><g id="node_text10" fill="black"><text id="kity_text_153" text-rendering="inherit" font-size="12" dy=".8em" y="283.7000000476837" x="483.5">设置CAN</text></g></g><g id="minder_node13"><g id="node_expander10" style="cursor: pointer;" display="none"><path id="kity_path_325" fill="white" stroke="gray" d="M473.5,343.5A6,6,0,1,1,461.5,343.5A6,6,0,1,1,473.5,343.5"></path><path id="kity_path_326" fill="none" stroke="gray"></path></g><path id="node_outline11" fill="none" stroke="none" d="M478.5,332.5h90a5,5,0,0,1,5,5v12a5,5,0,0,1,-5,5h-90a5,5,0,0,1,-5,-5v-12a5,5,0,0,1,5,-5z"></path><g id="node_text11" fill="black"><text id="kity_text_155" text-rendering="inherit" font-size="12" dy=".8em" y="335.7000000476837" x="483.5">连接/断开CAN</text></g></g><g id="minder_node14"><g id="node_expander11" style="cursor: pointer;" display="none"><path id="kity_path_328" fill="white" stroke="gray" d="M473.5,395.5A6,6,0,1,1,461.5,395.5A6,6,0,1,1,473.5,395.5"></path><path id="kity_path_329" fill="none" stroke="gray"></path></g><path id="node_outline12" fill="none" stroke="none" d="M478.5,384.5h95a5,5,0,0,1,5,5v12a5,5,0,0,1,-5,5h-95a5,5,0,0,1,-5,-5v-12a5,5,0,0,1,5,-5z"></path><g id="node_text12" fill="black"><text id="kity_text_157" text-rendering="inherit" font-size="12" dy=".8em" y="387.7000000476837" x="483.5">显示、发送数据</text></g></g><g id="minder_node15"><g id="node_expander16" style="cursor: pointer;"><path id="kity_path_343" fill="white" stroke="gray" d="M362.5,517.5A6,6,0,1,1,350.5,517.5A6,6,0,1,1,362.5,517.5"></path><path id="kity_path_344" fill="none" stroke="gray" d="M352,517.5L361,517.5"></path></g><path id="node_outline17" fill="none" stroke="none" d="M367.5,506.5h60a5,5,0,0,1,5,5v12a5,5,0,0,1,-5,5h-60a5,5,0,0,1,-5,-5v-12a5,5,0,0,1,5,-5z"></path><g id="node_text17" fill="black"><text id="kity_text_169" text-rendering="inherit" font-size="12" dy=".8em" y="509.7000000476837" x="372.5">信息提示</text></g></g><g id="minder_node16"><g id="node_expander13" style="cursor: pointer;" display="none"><path id="kity_path_334" fill="white" stroke="gray" d="M472.5,447.5A6,6,0,1,1,460.5,447.5A6,6,0,1,1,472.5,447.5"></path><path id="kity_path_335" fill="none" stroke="gray"></path></g><path id="node_outline14" fill="none" stroke="none" d="M477.5,436.5h119a5,5,0,0,1,5,5v12a5,5,0,0,1,-5,5h-119a5,5,0,0,1,-5,-5v-12a5,5,0,0,1,5,-5z"></path><g id="node_text14" fill="black"><text id="kity_text_161" text-rendering="inherit" font-size="12" dy=".8em" y="439.7000000476837" x="482.5">显示标定结束，误差</text></g></g><g id="minder_node17"><g id="node_expander14" style="cursor: pointer;" display="none"><path id="kity_path_337" fill="white" stroke="gray" d="M472.5,508.5A6,6,0,1,1,460.5,508.5A6,6,0,1,1,472.5,508.5"></path><path id="kity_path_338" fill="none" stroke="gray"></path></g><path id="node_outline15" fill="none" stroke="none" d="M477.5,488.5h204a5,5,0,0,1,5,5v30a5,5,0,0,1,-5,5h-204a5,5,0,0,1,-5,-5v-30a5,5,0,0,1,5,-5z"></path><g id="node_text15" fill="black"><text id="kity_text_163" text-rendering="inherit" font-size="12" dy=".8em" y="491.7000000476837" x="482.5">显示CAN连接，断开，发送测试成功</text><text id="kity_text_164" text-rendering="inherit" font-size="12" dy=".8em" y="509.7000000476837" x="482.5">显示发送CAN数据</text></g></g><g id="minder_node18"><g id="node_expander15" style="cursor: pointer;" display="none"><path id="kity_path_340" fill="white" stroke="gray" d="M472.5,578.5A6,6,0,1,1,460.5,578.5A6,6,0,1,1,472.5,578.5"></path><path id="kity_path_341" fill="none" stroke="gray"></path></g><path id="node_outline16" fill="none" stroke="none" d="M477.5,558.5h119a5,5,0,0,1,5,5v30a5,5,0,0,1,-5,5h-119a5,5,0,0,1,-5,-5v-30a5,5,0,0,1,5,-5z"></path><g id="node_text16" fill="black"><text id="kity_text_166" text-rendering="inherit" font-size="12" dy=".8em" y="561.7000000476837" x="482.5">显示图像级直线坐标</text><text id="kity_text_167" text-rendering="inherit" font-size="12" dy=".8em" y="579.7000000476837" x="482.5">显示现实直线坐标</text></g></g><g id="minder_node19"><g id="node_expander52" style="cursor: pointer;"><path id="kity_path_451" fill="white" stroke="gray" d="M252.5,1221.5A6,6,0,1,1,240.5,1221.5A6,6,0,1,1,252.5,1221.5"></path><path id="kity_path_452" fill="none" stroke="gray" d="M242,1221.5L251,1221.5"></path></g><path id="node_outline53" fill="rgb(238, 243, 246)" stroke="rgb(115, 161, 191)" d="M256.5,1208.5h78a3,3,0,0,1,3,3v20a3,3,0,0,1,-3,3h-78a3,3,0,0,1,-3,-3v-20a3,3,0,0,1,3,-3z" stroke-width="1"></path><g id="node_text53" fill="black"><text id="kity_text_241" text-rendering="inherit" font-size="14" dy=".8em" y="1212.4000000953674" x="273.5">逻辑层</text></g></g><g id="minder_node20"><g id="node_expander27" style="cursor: pointer;"><path id="kity_path_376" fill="white" stroke="gray" d="M377.5,818.5A6,6,0,1,1,365.5,818.5A6,6,0,1,1,377.5,818.5"></path><path id="kity_path_377" fill="none" stroke="gray" d="M367,818.5L376,818.5"></path></g><path id="node_outline28" fill="none" stroke="none" d="M382.5,807.5h105a5,5,0,0,1,5,5v12a5,5,0,0,1,-5,5h-105a5,5,0,0,1,-5,-5v-12a5,5,0,0,1,5,-5z"></path><g id="node_text28" fill="black"><text id="kity_text_191" text-rendering="inherit" font-size="12" dy=".8em" y="810.7000000476837" x="387.5">Class Calibration</text></g></g><g id="minder_node21"><g id="node_expander22" style="cursor: pointer;"><path id="kity_path_361" fill="white" stroke="gray" d="M532.5,727.5A6,6,0,1,1,520.5,727.5A6,6,0,1,1,532.5,727.5"></path><path id="kity_path_362" fill="none" stroke="gray" d="M522,727.5L531,727.5"></path></g><path id="node_outline23" fill="none" stroke="none" d="M537.5,716.5h36a5,5,0,0,1,5,5v12a5,5,0,0,1,-5,5h-36a5,5,0,0,1,-5,-5v-12a5,5,0,0,1,5,-5z"></path><g id="node_text23" fill="black"><text id="kity_text_181" text-rendering="inherit" font-size="12" dy=".8em" y="719.7000000476837" x="542.5">属性</text></g></g><g id="minder_node22"><g id="node_expander18" style="cursor: pointer;" display="none"><path id="kity_path_349" fill="white" stroke="gray" d="M618.5,649.5A6,6,0,1,1,606.5,649.5A6,6,0,1,1,618.5,649.5"></path><path id="kity_path_350" fill="none" stroke="gray"></path></g><path id="node_outline19" fill="none" stroke="none" d="M623.5,638.5h26a5,5,0,0,1,5,5v12a5,5,0,0,1,-5,5h-26a5,5,0,0,1,-5,-5v-12a5,5,0,0,1,5,-5z"></path><g id="node_text19" fill="black"><text id="kity_text_173" text-rendering="inherit" font-size="12" dy=".8em" y="641.7000000476837" x="628.5">src</text></g></g><g id="minder_node23"><g id="node_expander19" style="cursor: pointer;" display="none"><path id="kity_path_352" fill="white" stroke="gray" d="M618.5,701.5A6,6,0,1,1,606.5,701.5A6,6,0,1,1,618.5,701.5"></path><path id="kity_path_353" fill="none" stroke="gray"></path></g><path id="node_outline20" fill="none" stroke="none" d="M623.5,690.5h140a5,5,0,0,1,5,5v12a5,5,0,0,1,-5,5h-140a5,5,0,0,1,-5,-5v-12a5,5,0,0,1,5,-5z"></path><g id="node_text20" fill="black"><text id="kity_text_175" text-rendering="inherit" font-size="12" dy=".8em" y="693.7000000476837" x="628.5">内参矩阵CameraMatrix</text></g></g><g id="minder_node24"><g id="node_expander20" style="cursor: pointer;" display="none"><path id="kity_path_355" fill="white" stroke="gray" d="M618.5,753.5A6,6,0,1,1,606.5,753.5A6,6,0,1,1,618.5,753.5"></path><path id="kity_path_356" fill="none" stroke="gray"></path></g><path id="node_outline21" fill="none" stroke="none" d="M623.5,742.5h127a5,5,0,0,1,5,5v12a5,5,0,0,1,-5,5h-127a5,5,0,0,1,-5,-5v-12a5,5,0,0,1,5,-5z"></path><g id="node_text21" fill="black"><text id="kity_text_177" text-rendering="inherit" font-size="12" dy=".8em" y="745.7000000476837" x="628.5">畸变参数distortCoeff</text></g></g><g id="minder_node25"><g id="node_expander21" style="cursor: pointer;" display="none"><path id="kity_path_358" fill="white" stroke="gray" d="M618.5,805.5A6,6,0,1,1,606.5,805.5A6,6,0,1,1,618.5,805.5"></path><path id="kity_path_359" fill="none" stroke="gray"></path></g><path id="node_outline22" fill="none" stroke="none" d="M623.5,794.5h37a5,5,0,0,1,5,5v12a5,5,0,0,1,-5,5h-37a5,5,0,0,1,-5,-5v-12a5,5,0,0,1,5,-5z"></path><g id="node_text22" fill="black"><text id="kity_text_179" text-rendering="inherit" font-size="12" dy=".8em" y="797.7000000476837" x="628.5">----s</text></g></g><g id="minder_node26"><g id="node_expander26" style="cursor: pointer;"><path id="kity_path_373" fill="white" stroke="gray" d="M532.5,909.5A6,6,0,1,1,520.5,909.5A6,6,0,1,1,532.5,909.5"></path><path id="kity_path_374" fill="none" stroke="gray" d="M522,909.5L531,909.5"></path></g><path id="node_outline27" fill="none" stroke="none" d="M537.5,898.5h36a5,5,0,0,1,5,5v12a5,5,0,0,1,-5,5h-36a5,5,0,0,1,-5,-5v-12a5,5,0,0,1,5,-5z"></path><g id="node_text27" fill="black"><text id="kity_text_189" text-rendering="inherit" font-size="12" dy=".8em" y="901.7000000476837" x="542.5">方法</text></g></g><g id="minder_node27"><g id="node_expander23" style="cursor: pointer;" display="none"><path id="kity_path_364" fill="white" stroke="gray" d="M618.5,857.5A6,6,0,1,1,606.5,857.5A6,6,0,1,1,618.5,857.5"></path><path id="kity_path_365" fill="none" stroke="gray"></path></g><path id="node_outline24" fill="none" stroke="none" d="M623.5,846.5h71a5,5,0,0,1,5,5v12a5,5,0,0,1,-5,5h-71a5,5,0,0,1,-5,-5v-12a5,5,0,0,1,5,-5z"></path><g id="node_text24" fill="black"><text id="kity_text_183" text-rendering="inherit" font-size="12" dy=".8em" y="849.7000000476837" x="628.5">calibration</text></g></g><g id="minder_node28"><g id="node_expander24" style="cursor: pointer;" display="none"><path id="kity_path_367" fill="white" stroke="gray" d="M618.5,909.5A6,6,0,1,1,606.5,909.5A6,6,0,1,1,618.5,909.5"></path><path id="kity_path_368" fill="none" stroke="gray"></path></g><path id="node_outline25" fill="none" stroke="none" d="M623.5,898.5h41a5,5,0,0,1,5,5v12a5,5,0,0,1,-5,5h-41a5,5,0,0,1,-5,-5v-12a5,5,0,0,1,5,-5z"></path><g id="node_text25" fill="black"><text id="kity_text_185" text-rendering="inherit" font-size="12" dy=".8em" y="901.7000000476837" x="628.5">计算s</text></g></g><g id="minder_node29"><g id="node_expander25" style="cursor: pointer;" display="none"><path id="kity_path_370" fill="white" stroke="gray" d="M618.5,961.5A6,6,0,1,1,606.5,961.5A6,6,0,1,1,618.5,961.5"></path><path id="kity_path_371" fill="none" stroke="gray"></path></g><path id="node_outline26" fill="none" stroke="none" d="M623.5,950.5h95a5,5,0,0,1,5,5v12a5,5,0,0,1,-5,5h-95a5,5,0,0,1,-5,-5v-12a5,5,0,0,1,5,-5z"></path><g id="node_text26" fill="black"><text id="kity_text_187" text-rendering="inherit" font-size="12" dy=".8em" y="953.7000000476837" x="628.5">getWorldPoint</text></g></g><g id="minder_node30"><g id="node_expander37" style="cursor: pointer;"><path id="kity_path_406" fill="white" stroke="gray" d="M377.5,1208.5A6,6,0,1,1,365.5,1208.5A6,6,0,1,1,377.5,1208.5"></path><path id="kity_path_407" fill="none" stroke="gray" d="M367,1208.5L376,1208.5"></path></g><path id="node_outline38" fill="none" stroke="none" d="M382.5,1197.5h122a5,5,0,0,1,5,5v12a5,5,0,0,1,-5,5h-122a5,5,0,0,1,-5,-5v-12a5,5,0,0,1,5,-5z"></path><g id="node_text38" fill="black"><text id="kity_text_211" text-rendering="inherit" font-size="12" dy=".8em" y="1200.7000000476837" x="387.5">Class ImageProcess</text></g></g><g id="minder_node31"><g id="node_expander33" style="cursor: pointer;"><path id="kity_path_394" fill="white" stroke="gray" d="M549.5,1117.5A6,6,0,1,1,537.5,1117.5A6,6,0,1,1,549.5,1117.5"></path><path id="kity_path_395" fill="none" stroke="gray" d="M539,1117.5L548,1117.5"></path></g><path id="node_outline34" fill="none" stroke="none" d="M554.5,1106.5h36a5,5,0,0,1,5,5v12a5,5,0,0,1,-5,5h-36a5,5,0,0,1,-5,-5v-12a5,5,0,0,1,5,-5z"></path><g id="node_text34" fill="black"><text id="kity_text_203" text-rendering="inherit" font-size="12" dy=".8em" y="1109.7000000476837" x="559.5">属性</text></g></g><g id="minder_node32"><g id="node_expander28" style="cursor: pointer;" display="none"><path id="kity_path_379" fill="white" stroke="gray" d="M635.5,1013.5A6,6,0,1,1,623.5,1013.5A6,6,0,1,1,635.5,1013.5"></path><path id="kity_path_380" fill="none" stroke="gray"></path></g><path id="node_outline29" fill="none" stroke="none" d="M640.5,1002.5h26a5,5,0,0,1,5,5v12a5,5,0,0,1,-5,5h-26a5,5,0,0,1,-5,-5v-12a5,5,0,0,1,5,-5z"></path><g id="node_text29" fill="black"><text id="kity_text_193" text-rendering="inherit" font-size="12" dy=".8em" y="1005.7000000476837" x="645.5">src</text></g></g><g id="minder_node33"><g id="node_expander29" style="cursor: pointer;" display="none"><path id="kity_path_382" fill="white" stroke="gray" d="M635.5,1065.5A6,6,0,1,1,623.5,1065.5A6,6,0,1,1,635.5,1065.5"></path><path id="kity_path_383" fill="none" stroke="gray"></path></g><path id="node_outline30" fill="none" stroke="none" d="M640.5,1054.5h28a5,5,0,0,1,5,5v12a5,5,0,0,1,-5,5h-28a5,5,0,0,1,-5,-5v-12a5,5,0,0,1,5,-5z"></path><g id="node_text30" fill="black"><text id="kity_text_195" text-rendering="inherit" font-size="12" dy=".8em" y="1057.7000000476837" x="645.5">dst</text></g></g><g id="minder_node34"><g id="node_expander30" style="cursor: pointer;" display="none"><path id="kity_path_385" fill="white" stroke="gray" d="M635.5,1117.5A6,6,0,1,1,623.5,1117.5A6,6,0,1,1,635.5,1117.5"></path><path id="kity_path_386" fill="none" stroke="gray"></path></g><path id="node_outline31" fill="none" stroke="none" d="M640.5,1106.5h31a5,5,0,0,1,5,5v12a5,5,0,0,1,-5,5h-31a5,5,0,0,1,-5,-5v-12a5,5,0,0,1,5,-5z"></path><g id="node_text31" fill="black"><text id="kity_text_197" text-rendering="inherit" font-size="12" dy=".8em" y="1109.7000000476837" x="645.5">line</text></g></g><g id="minder_node35"><g id="node_expander31" style="cursor: pointer;" display="none"><path id="kity_path_388" fill="white" stroke="gray" d="M635.5,1169.5A6,6,0,1,1,623.5,1169.5A6,6,0,1,1,635.5,1169.5"></path><path id="kity_path_389" fill="none" stroke="gray"></path></g><path id="node_outline32" fill="none" stroke="none" d="M640.5,1158.5h158a5,5,0,0,1,5,5v12a5,5,0,0,1,-5,5h-158a5,5,0,0,1,-5,-5v-12a5,5,0,0,1,5,-5z"></path><g id="node_text32" fill="black"><text id="kity_text_199" text-rendering="inherit" font-size="12" dy=".8em" y="1161.7000000476837" x="645.5">showIntermediateProcess</text></g></g><g id="minder_node36"><g id="node_expander32" style="cursor: pointer;" display="none"><path id="kity_path_391" fill="white" stroke="gray" d="M635.5,1221.5A6,6,0,1,1,623.5,1221.5A6,6,0,1,1,635.5,1221.5"></path><path id="kity_path_392" fill="none" stroke="gray"></path></g><path id="node_outline33" fill="none" stroke="none" d="M640.5,1210.5h119a5,5,0,0,1,5,5v12a5,5,0,0,1,-5,5h-119a5,5,0,0,1,-5,-5v-12a5,5,0,0,1,5,-5z"></path><g id="node_text33" fill="black"><text id="kity_text_201" text-rendering="inherit" font-size="12" dy=".8em" y="1213.7000000476837" x="645.5">result: angle/offset</text></g></g><g id="minder_node37"><g id="node_expander36" style="cursor: pointer;"><path id="kity_path_403" fill="white" stroke="gray" d="M549.5,1299.5A6,6,0,1,1,537.5,1299.5A6,6,0,1,1,549.5,1299.5"></path><path id="kity_path_404" fill="none" stroke="gray" d="M539,1299.5L548,1299.5"></path></g><path id="node_outline37" fill="none" stroke="none" d="M554.5,1288.5h36a5,5,0,0,1,5,5v12a5,5,0,0,1,-5,5h-36a5,5,0,0,1,-5,-5v-12a5,5,0,0,1,5,-5z"></path><g id="node_text37" fill="black"><text id="kity_text_209" text-rendering="inherit" font-size="12" dy=".8em" y="1291.7000000476837" x="559.5">方法</text></g></g><g id="minder_node38"><g id="node_expander34" style="cursor: pointer;" display="none"><path id="kity_path_397" fill="white" stroke="gray" d="M635.5,1273.5A6,6,0,1,1,623.5,1273.5A6,6,0,1,1,635.5,1273.5"></path><path id="kity_path_398" fill="none" stroke="gray"></path></g><path id="node_outline35" fill="none" stroke="none" d="M640.5,1262.5h90a5,5,0,0,1,5,5v12a5,5,0,0,1,-5,5h-90a5,5,0,0,1,-5,-5v-12a5,5,0,0,1,5,-5z"></path><g id="node_text35" fill="black"><text id="kity_text_205" text-rendering="inherit" font-size="12" dy=".8em" y="1265.7000000476837" x="645.5">ImageProcess</text></g></g><g id="minder_node39"><g id="node_expander35" style="cursor: pointer;" display="none"><path id="kity_path_400" fill="white" stroke="gray" d="M635.5,1325.5A6,6,0,1,1,623.5,1325.5A6,6,0,1,1,635.5,1325.5"></path><path id="kity_path_401" fill="none" stroke="gray"></path></g><path id="node_outline36" fill="none" stroke="none" d="M640.5,1314.5h66a5,5,0,0,1,5,5v12a5,5,0,0,1,-5,5h-66a5,5,0,0,1,-5,-5v-12a5,5,0,0,1,5,-5z"></path><g id="node_text36" fill="black"><text id="kity_text_207" text-rendering="inherit" font-size="12" dy=".8em" y="1317.7000000476837" x="645.5">GetResult</text></g></g><g id="minder_node40"><g id="node_expander43" style="cursor: pointer;"><path id="kity_path_424" fill="white" stroke="gray" d="M377.5,1442.5A6,6,0,1,1,365.5,1442.5A6,6,0,1,1,377.5,1442.5"></path><path id="kity_path_425" fill="none" stroke="gray" d="M367,1442.5L376,1442.5"></path></g><path id="node_outline44" fill="none" stroke="none" d="M382.5,1431.5h46a5,5,0,0,1,5,5v12a5,5,0,0,1,-5,5h-46a5,5,0,0,1,-5,-5v-12a5,5,0,0,1,5,-5z"></path><g id="node_text44" fill="black"><text id="kity_text_223" text-rendering="inherit" font-size="12" dy=".8em" y="1434.7000000476837" x="387.5">Result</text></g></g><g id="minder_node41"><g id="node_expander40" style="cursor: pointer;"><path id="kity_path_415" fill="white" stroke="gray" d="M473.5,1403.5A6,6,0,1,1,461.5,1403.5A6,6,0,1,1,473.5,1403.5"></path><path id="kity_path_416" fill="none" stroke="gray" d="M463,1403.5L472,1403.5"></path></g><path id="node_outline41" fill="none" stroke="none" d="M478.5,1392.5h36a5,5,0,0,1,5,5v12a5,5,0,0,1,-5,5h-36a5,5,0,0,1,-5,-5v-12a5,5,0,0,1,5,-5z"></path><g id="node_text41" fill="black"><text id="kity_text_217" text-rendering="inherit" font-size="12" dy=".8em" y="1395.7000000476837" x="483.5">属性</text></g></g><g id="minder_node42"><g id="node_expander38" style="cursor: pointer;" display="none"><path id="kity_path_409" fill="white" stroke="gray" d="M559.5,1377.5A6,6,0,1,1,547.5,1377.5A6,6,0,1,1,559.5,1377.5"></path><path id="kity_path_410" fill="none" stroke="gray"></path></g><path id="node_outline39" fill="none" stroke="none" d="M564.5,1366.5h31a5,5,0,0,1,5,5v12a5,5,0,0,1,-5,5h-31a5,5,0,0,1,-5,-5v-12a5,5,0,0,1,5,-5z"></path><g id="node_text39" fill="black"><text id="kity_text_213" text-rendering="inherit" font-size="12" dy=".8em" y="1369.7000000476837" x="569.5">line</text></g></g><g id="minder_node43"><g id="node_expander39" style="cursor: pointer;" display="none"><path id="kity_path_412" fill="white" stroke="gray" d="M559.5,1429.5A6,6,0,1,1,547.5,1429.5A6,6,0,1,1,559.5,1429.5"></path><path id="kity_path_413" fill="none" stroke="gray"></path></g><path id="node_outline40" fill="none" stroke="none" d="M564.5,1418.5h80a5,5,0,0,1,5,5v12a5,5,0,0,1,-5,5h-80a5,5,0,0,1,-5,-5v-12a5,5,0,0,1,5,-5z"></path><g id="node_text40" fill="black"><text id="kity_text_215" text-rendering="inherit" font-size="12" dy=".8em" y="1421.7000000476837" x="569.5">angle/offset</text></g></g><g id="minder_node44"><g id="node_expander42" style="cursor: pointer;"><path id="kity_path_421" fill="white" stroke="gray" d="M473.5,1481.5A6,6,0,1,1,461.5,1481.5A6,6,0,1,1,473.5,1481.5"></path><path id="kity_path_422" fill="none" stroke="gray" d="M463,1481.5L472,1481.5"></path></g><path id="node_outline43" fill="none" stroke="none" d="M478.5,1470.5h36a5,5,0,0,1,5,5v12a5,5,0,0,1,-5,5h-36a5,5,0,0,1,-5,-5v-12a5,5,0,0,1,5,-5z"></path><g id="node_text43" fill="black"><text id="kity_text_221" text-rendering="inherit" font-size="12" dy=".8em" y="1473.7000000476837" x="483.5">方法</text></g></g><g id="minder_node45"><g id="node_expander41" style="cursor: pointer;" display="none"><path id="kity_path_418" fill="white" stroke="gray" d="M559.5,1481.5A6,6,0,1,1,547.5,1481.5A6,6,0,1,1,559.5,1481.5"></path><path id="kity_path_419" fill="none" stroke="gray"></path></g><path id="node_outline42" fill="none" stroke="none" d="M564.5,1470.5h67a5,5,0,0,1,5,5v12a5,5,0,0,1,-5,5h-67a5,5,0,0,1,-5,-5v-12a5,5,0,0,1,5,-5z"></path><g id="node_text42" fill="black"><text id="kity_text_219" text-rendering="inherit" font-size="12" dy=".8em" y="1473.7000000476837" x="569.5">transform</text></g></g><g id="minder_node46"><g id="node_expander51" style="cursor: pointer;"><path id="kity_path_448" fill="white" stroke="gray" d="M377.5,1624.5A6,6,0,1,1,365.5,1624.5A6,6,0,1,1,377.5,1624.5"></path><path id="kity_path_449" fill="none" stroke="gray" d="M367,1624.5L376,1624.5"></path></g><path id="node_outline52" fill="none" stroke="none" d="M382.5,1613.5h112a5,5,0,0,1,5,5v12a5,5,0,0,1,-5,5h-112a5,5,0,0,1,-5,-5v-12a5,5,0,0,1,5,-5z"></path><g id="node_text52" fill="black"><text id="kity_text_239" text-rendering="inherit" font-size="12" dy=".8em" y="1616.7000000476837" x="387.5">Class CANControl</text></g></g><g id="minder_node47"><g id="node_expander46" style="cursor: pointer;"><path id="kity_path_433" fill="white" stroke="gray" d="M539.5,1559.5A6,6,0,1,1,527.5,1559.5A6,6,0,1,1,539.5,1559.5"></path><path id="kity_path_434" fill="none" stroke="gray" d="M529,1559.5L538,1559.5"></path></g><path id="node_outline47" fill="none" stroke="none" d="M544.5,1548.5h36a5,5,0,0,1,5,5v12a5,5,0,0,1,-5,5h-36a5,5,0,0,1,-5,-5v-12a5,5,0,0,1,5,-5z"></path><g id="node_text47" fill="black"><text id="kity_text_229" text-rendering="inherit" font-size="12" dy=".8em" y="1551.7000000476837" x="549.5">属性</text></g></g><g id="minder_node48"><g id="node_expander44" style="cursor: pointer;" display="none"><path id="kity_path_427" fill="white" stroke="gray" d="M625.5,1533.5A6,6,0,1,1,613.5,1533.5A6,6,0,1,1,625.5,1533.5"></path><path id="kity_path_428" fill="none" stroke="gray"></path></g><path id="node_outline45" fill="none" stroke="none" d="M630.5,1522.5h71a5,5,0,0,1,5,5v12a5,5,0,0,1,-5,5h-71a5,5,0,0,1,-5,-5v-12a5,5,0,0,1,5,-5z"></path><g id="node_text45" fill="black"><text id="kity_text_225" text-rendering="inherit" font-size="12" dy=".8em" y="1525.7000000476837" x="635.5">CanObject</text></g></g><g id="minder_node49"><g id="node_expander45" style="cursor: pointer;" display="none"><path id="kity_path_430" fill="white" stroke="gray" d="M625.5,1585.5A6,6,0,1,1,613.5,1585.5A6,6,0,1,1,625.5,1585.5"></path><path id="kity_path_431" fill="none" stroke="gray"></path></g><path id="node_outline46" fill="none" stroke="none" d="M630.5,1574.5h67a5,5,0,0,1,5,5v12a5,5,0,0,1,-5,5h-67a5,5,0,0,1,-5,-5v-12a5,5,0,0,1,5,-5z"></path><g id="node_text46" fill="black"><text id="kity_text_227" text-rendering="inherit" font-size="12" dy=".8em" y="1577.7000000476837" x="635.5">IsConnect</text></g></g><g id="minder_node50"><g id="node_expander50" style="cursor: pointer;"><path id="kity_path_445" fill="white" stroke="gray" d="M539.5,1689.5A6,6,0,1,1,527.5,1689.5A6,6,0,1,1,539.5,1689.5"></path><path id="kity_path_446" fill="none" stroke="gray" d="M529,1689.5L538,1689.5"></path></g><path id="node_outline51" fill="none" stroke="none" d="M544.5,1678.5h36a5,5,0,0,1,5,5v12a5,5,0,0,1,-5,5h-36a5,5,0,0,1,-5,-5v-12a5,5,0,0,1,5,-5z"></path><g id="node_text51" fill="black"><text id="kity_text_237" text-rendering="inherit" font-size="12" dy=".8em" y="1681.7000000476837" x="549.5">方法</text></g></g><g id="minder_node51"><g id="node_expander47" style="cursor: pointer;" display="none"><path id="kity_path_436" fill="white" stroke="gray" d="M625.5,1637.5A6,6,0,1,1,613.5,1637.5A6,6,0,1,1,625.5,1637.5"></path><path id="kity_path_437" fill="none" stroke="gray"></path></g><path id="node_outline48" fill="none" stroke="none" d="M630.5,1626.5h42a5,5,0,0,1,5,5v12a5,5,0,0,1,-5,5h-42a5,5,0,0,1,-5,-5v-12a5,5,0,0,1,5,-5z"></path><g id="node_text48" fill="black"><text id="kity_text_231" text-rendering="inherit" font-size="12" dy=".8em" y="1629.7000000476837" x="635.5">Initial</text></g></g><g id="minder_node52"><g id="node_expander48" style="cursor: pointer;" display="none"><path id="kity_path_439" fill="white" stroke="gray" d="M625.5,1689.5A6,6,0,1,1,613.5,1689.5A6,6,0,1,1,625.5,1689.5"></path><path id="kity_path_440" fill="none" stroke="gray"></path></g><path id="node_outline49" fill="none" stroke="none" d="M630.5,1678.5h80a5,5,0,0,1,5,5v12a5,5,0,0,1,-5,5h-80a5,5,0,0,1,-5,-5v-12a5,5,0,0,1,5,-5z"></path><g id="node_text49" fill="black"><text id="kity_text_233" text-rendering="inherit" font-size="12" dy=".8em" y="1681.7000000476837" x="635.5">Connect/dis</text></g></g><g id="minder_node53"><g id="node_expander49" style="cursor: pointer;" display="none"><path id="kity_path_442" fill="white" stroke="gray" d="M625.5,1741.5A6,6,0,1,1,613.5,1741.5A6,6,0,1,1,625.5,1741.5"></path><path id="kity_path_443" fill="none" stroke="gray"></path></g><path id="node_outline50" fill="none" stroke="none" d="M630.5,1730.5h90a5,5,0,0,1,5,5v12a5,5,0,0,1,-5,5h-90a5,5,0,0,1,-5,-5v-12a5,5,0,0,1,5,-5z"></path><g id="node_text50" fill="black"><text id="kity_text_235" text-rendering="inherit" font-size="12" dy=".8em" y="1733.7000000476837" x="635.5">SendMessage</text></g></g><g id="minder_node54"><g id="node_expander53" style="cursor: pointer;"><path id="kity_path_454" fill="white" stroke="gray" d="M252.5,1890.5A6,6,0,1,1,240.5,1890.5A6,6,0,1,1,252.5,1890.5"></path><path id="kity_path_455" fill="none" stroke="gray" d="M242,1890.5L251,1890.5"></path></g><path id="node_outline54" fill="rgb(238, 243, 246)" stroke="rgb(115, 161, 191)" d="M256.5,1877.5h78a3,3,0,0,1,3,3v20a3,3,0,0,1,-3,3h-78a3,3,0,0,1,-3,-3v-20a3,3,0,0,1,3,-3z" stroke-width="1"></path><g id="node_text54" fill="black"><text id="kity_text_243" text-rendering="inherit" font-size="14" dy=".8em" y="1881.4000000953674" x="273.5">数据层</text></g></g><g id="minder_node55"><g id="node_expander54" style="cursor: pointer;" display="none"><path id="kity_path_462" fill="white" stroke="gray" d="M377.5,1803.5A6,6,0,1,1,365.5,1803.5A6,6,0,1,1,377.5,1803.5"></path><path id="kity_path_463" fill="none" stroke="gray" d="M367,1803.5L376,1803.5"></path></g><path id="node_outline55" fill="none" stroke="none" d="M382.5,1792.5h130a5,5,0,0,1,5,5v12a5,5,0,0,1,-5,5h-130a5,5,0,0,1,-5,-5v-12a5,5,0,0,1,5,-5z" stroke-width="3"></path><g id="node_text55" fill="black"><text id="kity_text_459" text-rendering="inherit" font-size="12" dy=".8em" y="1795.7000000476837" x="387.5">图像矫正矩阵参数读写</text></g></g><g id="minder_node57"><g id="node_expander56" style="cursor: pointer;" display="none"><path id="kity_path_478" fill="white" stroke="gray" d="M377.5,1855.5A6,6,0,1,1,365.5,1855.5A6,6,0,1,1,377.5,1855.5"></path><path id="kity_path_479" fill="none" stroke="gray" d="M367,1855.5L376,1855.5"></path></g><path id="node_outline57" fill="none" stroke="none" d="M382.5,1844.5h59a5,5,0,0,1,5,5v12a5,5,0,0,1,-5,5h-59a5,5,0,0,1,-5,-5v-12a5,5,0,0,1,5,-5z" stroke-width="3"></path><g id="node_text57" fill="black"><text id="kity_text_475" text-rendering="inherit" font-size="12" dy=".8em" y="1847.7000000476837" x="387.5">视频读写</text></g></g><g id="minder_node58"><g id="node_expander57" style="cursor: pointer;" display="none"><path id="kity_path_486" fill="white" stroke="gray" d="M377.5,1916.5A6,6,0,1,1,365.5,1916.5A6,6,0,1,1,377.5,1916.5"></path><path id="kity_path_487" fill="none" stroke="gray"></path></g><path id="node_outline58" fill="none" stroke="none" d="M382.5,1896.5h133a5,5,0,0,1,5,5v30a5,5,0,0,1,-5,5h-133a5,5,0,0,1,-5,-5v-30a5,5,0,0,1,5,-5z" stroke-width="3"></path><g id="node_text58" fill="black"><text id="kity_text_483" text-rendering="inherit" font-size="12" dy=".8em" y="1899.7000000476837" x="387.5">导航参数结果</text><text id="kity_text_496" text-rendering="inherit" font-size="12" dy=".8em" y="1917.7000000476837" x="387.5">CAN数据帧转化和发送</text></g></g><g id="minder_node60" opacity="1"><g id="node_expander59" style="cursor: pointer;" display="none"><path id="kity_path_503" fill="white" stroke="gray" d="M377.5,1977.5A6,6,0,1,1,365.5,1977.5A6,6,0,1,1,377.5,1977.5"></path><path id="kity_path_504" fill="none" stroke="gray"></path></g><path id="node_outline60" fill="none" stroke="none" d="M382.5,1966.5h83a5,5,0,0,1,5,5v12a5,5,0,0,1,-5,5h-83a5,5,0,0,1,-5,-5v-12a5,5,0,0,1,5,-5z" stroke-width="3"></path><g id="node_text60" fill="black"><text id="kity_text_500" text-rendering="inherit" font-size="12" dy=".8em" y="1969.7000000476837" x="387.5">显示中间过程</text></g></g><g id="kity_g_12" display="none"><path id="kity_path_13" fill="none" stroke="rgb(66, 94, 112)" d="M382.5,1948.5h133a5,5,0,0,1,5,5v30a5,5,0,0,1,-5,5h-133a5,5,0,0,1,-5,-5v-30a5,5,0,0,1,5,-5z" stroke-width="5"></path></g></g></g></svg>